<svg xmlns="http://www.w3.org/2000/svg" width="475" height="78" viewBox="0 0 475 78"><g fill="none" fill-rule="evenodd"><path fill="#394351" d="M0 158h555V0H0z"/><g fill="#FFF"><path d="M178.86 1.968A6.71 6.71 0 0 0 174.08 0H6.708A6.71 6.71 0 0 0 0 6.71v63.58A6.709 6.709 0 0 0 6.708 77H174.08a6.702 6.702 0 0 0 4.78-1.968l30.216-31.705c2.565-2.61 2.565-6.965 0-9.575L178.861 1.968zm-58.275 19.245a4.074 4.074 0 0 1 2.952-1.102c.69.01 1.366.193 1.966.53a4.203 4.203 0 0 1 1.536 1.437c.38.586.578 1.271.57 1.968a3.495 3.495 0 0 1-.57 1.969 4.215 4.215 0 0 1-1.536 1.416 4.187 4.187 0 0 1-4.091 0 3.95 3.95 0 0 1-1.497-1.416 3.6 3.6 0 0 1-.55-1.97 3.716 3.716 0 0 1 1.22-2.832zM42.496 53.918a13.01 13.01 0 0 1-4.7 5.117 12.692 12.692 0 0 1-13.243 0 13.015 13.015 0 0 1-4.683-5.117 16.24 16.24 0 0 1-1.712-7.557 15.232 15.232 0 0 1 1.752-7.26 13.477 13.477 0 0 1 4.742-5.176 12.274 12.274 0 0 1 13.083 0 13.467 13.467 0 0 1 4.741 5.176 15.209 15.209 0 0 1 1.752 7.26 16.236 16.236 0 0 1-1.732 7.557zM70.79 41.532c-1.633-2.412-4.376-4.087-7.399-3.888a6.257 6.257 0 0 0-3.659 1.142 7.856 7.856 0 0 0-2.675 3.089 11.412 11.412 0 0 0-.965 4.821 10.744 10.744 0 0 0 .965 4.467 6.962 6.962 0 0 0 2.537 3.011 6.693 6.693 0 0 0 3.718 1.062c1.01-.051 1.74-.129 2.19-.235.363-.087.854-.297 1.47-.63a9.843 9.843 0 0 0 3.345-2.775l3.816 4.407a14.014 14.014 0 0 1-4.976 3.68 14.603 14.603 0 0 1-5.904 1.18 13.77 13.77 0 0 1-7.082-1.828 13.001 13.001 0 0 1-4.919-5.137 15.35 15.35 0 0 1-1.771-7.38 15.545 15.545 0 0 1 1.771-7.398 13.292 13.292 0 0 1 4.919-5.234 13.607 13.607 0 0 1 7.2-1.968 14.818 14.818 0 0 1 6.335 1.377 11.101 11.101 0 0 1 4.644 3.936l-3.56 4.3zm32.797 18.486H81.944v-5.096h7.516V25.58h-7.103v-5.174H96.13v34.515h7.457v5.096zm29.628 0h-19.102v-5.274h6.591V37.9h-6.317v-5.273h12.828v22.118h5.903l.097 5.274zm32.268-31.997a13.762 13.762 0 0 0-3.03-2.223 6.457 6.457 0 0 0-2.814-.59 5.056 5.056 0 0 0-4.071 1.613 7.138 7.138 0 0 0-1.378 4.762v1.122h8.4v5.214h-8.36v22.1h-6.395V37.84h-5.903v-5.215h5.903v-1.141a12.348 12.348 0 0 1 1.515-6.298 10.133 10.133 0 0 1 4.093-3.935 12.015 12.015 0 0 1 5.705-1.358 12.396 12.396 0 0 1 9.09 3.818l-2.755 4.31zM36.79 41.501c.547 1.554.806 3.195.767 4.841a14.101 14.101 0 0 1-.767 4.82 7.29 7.29 0 0 1-2.223 3.267 5.272 5.272 0 0 1-3.404 1.162 5.136 5.136 0 0 1-3.345-1.142 7.256 7.256 0 0 1-2.242-3.187 14.468 14.468 0 0 1-.768-4.92 13.407 13.407 0 0 1 .787-4.821 7.008 7.008 0 0 1 2.203-3.13 5.232 5.232 0 0 1 3.384-1.003 5.49 5.49 0 0 1 3.404 1.083 6.837 6.837 0 0 1 2.204 3.03z"/><path d="M370.905 1.968A6.696 6.696 0 0 0 366.131 0H177v77h189.131a6.688 6.688 0 0 0 4.774-1.968l30.174-31.705c2.561-2.61 2.561-6.965 0-9.575L370.905 1.968z" opacity=".2"/><text font-family="RobotoMono-Medium, Roboto Mono" font-size="56" font-weight="400"><tspan x="224" y="61">conf</tspan></text><path d="M475 73.64c0 1.856-1.435 3.36-3.207 3.36h-53.586c-1.77 0-3.207-1.504-3.207-3.36v-3.28c0-1.856 1.436-3.361 3.207-3.361h53.607c1.763.011 3.186 1.512 3.186 3.361v3.279z"/></g></g></svg>